# xmcd CD database file
# Copyright (C) 1996 Ti Kan
#
# Track frame offsets:
#  182
#  13952
#  28330
#  41545
#  54500
#  67895
#  81165
#  94790
#  107820
#  122825
#  136090
#  149495
#  161605
#  173337
#  185357
#  197100
#  209082
#  222952
#  236782
#  250220
#  263467
#  274880
#  287902
#  301695
#
# Disc length: 4198 seconds
#
# Revision: 2
# Processed by: cddbd v1.4b41PL1 Copyright (c) Steve Scherf et al.
# Submitted via: CDWizzard Release:4.12
#
DISCID=63106418
DTITLE=Big Bill Broonzy - Big Bill's Blues
DYEAR=1900
DGENRE=
TTITLE0=Too Too Train Blues
TTITLE1=Mistreatin' Mama Blues
TTITLE2=Bull Cow Blues
TTITLE3=Long Tall Mama
TTITLE4=I'll Be Back Home Again
TTITLE5=Keep Your Hands Off Her
TTITLE6=Big Bill Blues
TTITLE7=I'm A Southern Man
TTITLE8=Southern Flood Blues
TTITLE9=You Do Me Any Old Way
TTITLE10=New Shake 'Em On Down
TTITLE11=Let Me Dig It
TTITLE12=Baby I Done Got Wise
TTITLE13=Just A Dream
TTITLE14=Just Got To Hold You Tight
TTITLE15=Oh Yes
TTITLE16=Looking Up At Down
TTITLE17=You Better Cut That Out
TTITLE18=Lonesome Road Blues
TTITLE19=When I Had Been Drinking
TTITLE20=All By Myself
TTITLE21=Night Watchman Blues
TTITLE22=Tell Me Baby
TTITLE23=I'm Gonna Move To The Outskirts Of The Town
EXTD=
EXTT0=
EXTT1=
EXTT2=
EXTT3=
EXTT4=
EXTT5=
EXTT6=
EXTT7=
EXTT8=
EXTT9=
EXTT10=
EXTT11=
EXTT12=
EXTT13=
EXTT14=
EXTT15=
EXTT16=
EXTT17=
EXTT18=
EXTT19=
EXTT20=
EXTT21=
EXTT22=
EXTT23=
PLAYORDER=
